<mxfile host="app.diagrams.net" agent="Mozilla/5.0 (Windows NT 10.0; Win64; x64) AppleWebKit/537.36 (KHTML, like Gecko) Chrome/128.0.0.0 Safari/537.36" version="24.7.15">
  <diagram name="페이지-1" id="rBmJIZxG7yvCgtCbwhHX">
    <mxGraphModel dx="954" dy="600" grid="1" gridSize="10" guides="1" tooltips="1" connect="1" arrows="1" fold="1" page="1" pageScale="1" pageWidth="827" pageHeight="1169" math="0" shadow="0">
      <root>
        <mxCell id="0" />
        <mxCell id="1" parent="0" />
        <mxCell id="bBUdrtgZRIGRnJ31DBfr-1" value="회원" style="shape=umlActor;verticalLabelPosition=bottom;verticalAlign=top;html=1;outlineConnect=0;" parent="1" vertex="1">
          <mxGeometry x="80" y="120" width="40" height="80" as="geometry" />
        </mxCell>
        <mxCell id="bBUdrtgZRIGRnJ31DBfr-2" value="" style="rounded=0;whiteSpace=wrap;html=1;" parent="1" vertex="1">
          <mxGeometry x="160" y="40" width="520" height="470" as="geometry" />
        </mxCell>
        <mxCell id="bBUdrtgZRIGRnJ31DBfr-3" value="로그인" style="ellipse;whiteSpace=wrap;html=1;" parent="1" vertex="1">
          <mxGeometry x="190" y="137.5" width="70" height="45" as="geometry" />
        </mxCell>
        <mxCell id="bBUdrtgZRIGRnJ31DBfr-4" value="" style="endArrow=none;html=1;rounded=0;" parent="1" source="bBUdrtgZRIGRnJ31DBfr-1" edge="1">
          <mxGeometry width="50" height="50" relative="1" as="geometry">
            <mxPoint x="140" y="210" as="sourcePoint" />
            <mxPoint x="190" y="160" as="targetPoint" />
          </mxGeometry>
        </mxCell>
        <mxCell id="bBUdrtgZRIGRnJ31DBfr-5" value="" style="endArrow=classic;html=1;rounded=0;entryX=1;entryY=0;entryDx=0;entryDy=0;exitX=0.1;exitY=0.667;exitDx=0;exitDy=0;exitPerimeter=0;" parent="1" source="bBUdrtgZRIGRnJ31DBfr-6" target="bBUdrtgZRIGRnJ31DBfr-3" edge="1">
          <mxGeometry width="50" height="50" relative="1" as="geometry">
            <mxPoint x="225" y="110" as="sourcePoint" />
            <mxPoint x="290" y="110" as="targetPoint" />
          </mxGeometry>
        </mxCell>
        <mxCell id="bBUdrtgZRIGRnJ31DBfr-6" value="통합정보&lt;div&gt;시스템&lt;/div&gt;" style="ellipse;whiteSpace=wrap;html=1;" parent="1" vertex="1">
          <mxGeometry x="270" y="75" width="70" height="45" as="geometry" />
        </mxCell>
        <mxCell id="bBUdrtgZRIGRnJ31DBfr-7" value="" style="endArrow=none;dashed=1;html=1;dashPattern=1 3;strokeWidth=2;rounded=0;exitX=1;exitY=0.5;exitDx=0;exitDy=0;entryX=0;entryY=0.5;entryDx=0;entryDy=0;" parent="1" source="bBUdrtgZRIGRnJ31DBfr-3" target="bBUdrtgZRIGRnJ31DBfr-8" edge="1">
          <mxGeometry width="50" height="50" relative="1" as="geometry">
            <mxPoint x="270" y="190" as="sourcePoint" />
            <mxPoint x="320" y="140" as="targetPoint" />
          </mxGeometry>
        </mxCell>
        <mxCell id="bBUdrtgZRIGRnJ31DBfr-8" value="히스토리&lt;div&gt;보기&lt;/div&gt;" style="ellipse;whiteSpace=wrap;html=1;" parent="1" vertex="1">
          <mxGeometry x="330" y="137.5" width="70" height="45" as="geometry" />
        </mxCell>
        <mxCell id="bBUdrtgZRIGRnJ31DBfr-9" value="DB" style="rounded=0;whiteSpace=wrap;html=1;" parent="1" vertex="1">
          <mxGeometry x="70" y="280" width="60" height="60" as="geometry" />
        </mxCell>
        <mxCell id="bBUdrtgZRIGRnJ31DBfr-10" value="&amp;lt;include&amp;gt;" style="text;html=1;align=center;verticalAlign=middle;whiteSpace=wrap;rounded=0;" parent="1" vertex="1">
          <mxGeometry x="260" y="130" width="70" height="30" as="geometry" />
        </mxCell>
        <mxCell id="9bF_0-tk3opLI7xKJc2A-7" value="질문하기" style="ellipse;whiteSpace=wrap;html=1;" parent="1" vertex="1">
          <mxGeometry x="430" y="137.5" width="70" height="45" as="geometry" />
        </mxCell>
        <mxCell id="9bF_0-tk3opLI7xKJc2A-8" value="" style="endArrow=none;html=1;rounded=0;exitX=1;exitY=0.5;exitDx=0;exitDy=0;" parent="1" source="bBUdrtgZRIGRnJ31DBfr-8" edge="1">
          <mxGeometry width="50" height="50" relative="1" as="geometry">
            <mxPoint x="400" y="210" as="sourcePoint" />
            <mxPoint x="430" y="160" as="targetPoint" />
          </mxGeometry>
        </mxCell>
        <mxCell id="9bF_0-tk3opLI7xKJc2A-9" value="" style="shape=umlActor;verticalLabelPosition=bottom;verticalAlign=top;html=1;outlineConnect=0;" parent="1" vertex="1">
          <mxGeometry x="720" y="120" width="40" height="80" as="geometry" />
        </mxCell>
        <mxCell id="9bF_0-tk3opLI7xKJc2A-11" value="답변 얻기" style="ellipse;whiteSpace=wrap;html=1;" parent="1" vertex="1">
          <mxGeometry x="570" y="137.5" width="70" height="45" as="geometry" />
        </mxCell>
        <mxCell id="9bF_0-tk3opLI7xKJc2A-13" value="" style="endArrow=none;html=1;rounded=0;exitX=1;exitY=0.5;exitDx=0;exitDy=0;" parent="1" source="9bF_0-tk3opLI7xKJc2A-11" target="9bF_0-tk3opLI7xKJc2A-9" edge="1">
          <mxGeometry width="50" height="50" relative="1" as="geometry">
            <mxPoint x="670" y="200" as="sourcePoint" />
            <mxPoint x="720" y="150" as="targetPoint" />
          </mxGeometry>
        </mxCell>
        <mxCell id="9bF_0-tk3opLI7xKJc2A-14" value="" style="endArrow=none;dashed=1;html=1;dashPattern=1 3;strokeWidth=2;rounded=0;exitX=1;exitY=0.5;exitDx=0;exitDy=0;entryX=0;entryY=0.5;entryDx=0;entryDy=0;" parent="1" source="9bF_0-tk3opLI7xKJc2A-7" target="9bF_0-tk3opLI7xKJc2A-11" edge="1">
          <mxGeometry width="50" height="50" relative="1" as="geometry">
            <mxPoint x="520" y="210" as="sourcePoint" />
            <mxPoint x="570" y="160" as="targetPoint" />
          </mxGeometry>
        </mxCell>
        <mxCell id="9bF_0-tk3opLI7xKJc2A-15" value="&amp;lt;include&amp;gt;" style="text;html=1;align=center;verticalAlign=middle;whiteSpace=wrap;rounded=0;" parent="1" vertex="1">
          <mxGeometry x="500" y="130" width="70" height="30" as="geometry" />
        </mxCell>
        <mxCell id="9bF_0-tk3opLI7xKJc2A-21" value="DB" style="rounded=0;whiteSpace=wrap;html=1;" parent="1" vertex="1">
          <mxGeometry x="710" y="360" width="60" height="60" as="geometry" />
        </mxCell>
        <mxCell id="9bF_0-tk3opLI7xKJc2A-23" value="비회원" style="shape=umlActor;verticalLabelPosition=bottom;verticalAlign=top;html=1;outlineConnect=0;" parent="1" vertex="1">
          <mxGeometry x="80" y="400" width="40" height="80" as="geometry" />
        </mxCell>
        <mxCell id="9bF_0-tk3opLI7xKJc2A-24" value="" style="endArrow=none;html=1;rounded=0;entryX=0;entryY=1;entryDx=0;entryDy=0;" parent="1" source="9bF_0-tk3opLI7xKJc2A-23" target="9bF_0-tk3opLI7xKJc2A-7" edge="1">
          <mxGeometry width="50" height="50" relative="1" as="geometry">
            <mxPoint x="120" y="300" as="sourcePoint" />
            <mxPoint x="170" y="250" as="targetPoint" />
          </mxGeometry>
        </mxCell>
        <mxCell id="9bF_0-tk3opLI7xKJc2A-25" value="회원" style="shape=umlActor;verticalLabelPosition=bottom;verticalAlign=top;html=1;outlineConnect=0;" parent="1" vertex="1">
          <mxGeometry x="700" y="240" width="30" height="60" as="geometry" />
        </mxCell>
        <mxCell id="9bF_0-tk3opLI7xKJc2A-26" value="비회원" style="shape=umlActor;verticalLabelPosition=bottom;verticalAlign=top;html=1;outlineConnect=0;" parent="1" vertex="1">
          <mxGeometry x="750" y="240" width="30" height="60" as="geometry" />
        </mxCell>
        <mxCell id="9bF_0-tk3opLI7xKJc2A-27" value="" style="endArrow=classic;html=1;rounded=0;exitX=0.5;exitY=0;exitDx=0;exitDy=0;exitPerimeter=0;" parent="1" source="9bF_0-tk3opLI7xKJc2A-25" target="9bF_0-tk3opLI7xKJc2A-9" edge="1">
          <mxGeometry width="50" height="50" relative="1" as="geometry">
            <mxPoint x="680" y="250" as="sourcePoint" />
            <mxPoint x="730" y="200" as="targetPoint" />
          </mxGeometry>
        </mxCell>
        <mxCell id="9bF_0-tk3opLI7xKJc2A-28" value="" style="endArrow=classic;html=1;rounded=0;exitX=0.5;exitY=0;exitDx=0;exitDy=0;exitPerimeter=0;" parent="1" source="9bF_0-tk3opLI7xKJc2A-26" target="9bF_0-tk3opLI7xKJc2A-9" edge="1">
          <mxGeometry width="50" height="50" relative="1" as="geometry">
            <mxPoint x="725" y="250" as="sourcePoint" />
            <mxPoint x="738" y="210" as="targetPoint" />
          </mxGeometry>
        </mxCell>
        <mxCell id="9bF_0-tk3opLI7xKJc2A-29" value="" style="endArrow=none;html=1;rounded=0;exitX=0;exitY=0.5;exitDx=0;exitDy=0;entryX=0.5;entryY=1;entryDx=0;entryDy=0;" parent="1" source="9bF_0-tk3opLI7xKJc2A-21" target="9bF_0-tk3opLI7xKJc2A-11" edge="1">
          <mxGeometry width="50" height="50" relative="1" as="geometry">
            <mxPoint x="560" y="232.5" as="sourcePoint" />
            <mxPoint x="610" y="182.5" as="targetPoint" />
          </mxGeometry>
        </mxCell>
        <mxCell id="XDDHAK65Z66eL5c-OfQ5-1" style="edgeStyle=orthogonalEdgeStyle;rounded=0;orthogonalLoop=1;jettySize=auto;html=1;exitX=0.5;exitY=1;exitDx=0;exitDy=0;" edge="1" parent="1" source="bBUdrtgZRIGRnJ31DBfr-2" target="bBUdrtgZRIGRnJ31DBfr-2">
          <mxGeometry relative="1" as="geometry" />
        </mxCell>
        <mxCell id="XDDHAK65Z66eL5c-OfQ5-2" value="" style="rounded=0;whiteSpace=wrap;html=1;" vertex="1" parent="1">
          <mxGeometry x="420" y="310" width="220" height="170" as="geometry" />
        </mxCell>
        <mxCell id="XDDHAK65Z66eL5c-OfQ5-3" value="&lt;font style=&quot;font-size: 25px;&quot;&gt;RAG 시스템&amp;nbsp;&lt;/font&gt;&lt;div&gt;&lt;font style=&quot;font-size: 25px;&quot;&gt;작동 중&lt;/font&gt;&lt;/div&gt;" style="text;html=1;align=center;verticalAlign=middle;whiteSpace=wrap;rounded=0;" vertex="1" parent="1">
          <mxGeometry x="402" y="380" width="266" height="30" as="geometry" />
        </mxCell>
        <mxCell id="XDDHAK65Z66eL5c-OfQ5-4" value="" style="endArrow=none;html=1;rounded=0;entryX=0;entryY=1;entryDx=0;entryDy=0;exitX=1;exitY=0.5;exitDx=0;exitDy=0;" edge="1" parent="1" source="bBUdrtgZRIGRnJ31DBfr-9" target="bBUdrtgZRIGRnJ31DBfr-8">
          <mxGeometry width="50" height="50" relative="1" as="geometry">
            <mxPoint x="130" y="320" as="sourcePoint" />
            <mxPoint x="180" y="270" as="targetPoint" />
          </mxGeometry>
        </mxCell>
      </root>
    </mxGraphModel>
  </diagram>
</mxfile>
